<svg xmlns="http://www.w3.org/2000/svg" viewBox="0 0 32 32" id="settings">
  <path d="M12.32 30.47a2.82 2.82 0 0 1-1.13-.23l-1.86-.77a3 3 0 0 1-1.62-3.91l.59-1.43a.33.33 0 0 0-.07-.35.33.33 0 0 0-.36-.08l-1.43.59a3 3 0 0 1-3.92-1.63l-.76-1.84a3 3 0 0 1 1.62-3.92l1.43-.59A.34.34 0 0 0 5 16a.34.34 0 0 0-.19-.32l-1.43-.58a3 3 0 0 1-1.62-3.92l.77-1.86a3 3 0 0 1 3.91-1.61l1.43.59a.33.33 0 0 0 .35-.07.33.33 0 0 0 .08-.36l-.59-1.43a3 3 0 0 1 1.63-3.92l1.84-.76a3 3 0 0 1 3.92 1.62l.59 1.43A.34.34 0 0 0 16 5a.34.34 0 0 0 .32-.19l.58-1.43a3 3 0 0 1 3.92-1.62l1.86.77a3 3 0 0 1 1.62 3.91l-.6 1.43a.33.33 0 0 0 .07.35.33.33 0 0 0 .36.08l1.43-.59a3 3 0 0 1 3.92 1.63l.76 1.84a3 3 0 0 1-1.62 3.92l-1.43.59A.34.34 0 0 0 27 16a.34.34 0 0 0 .19.32l1.43.58a3 3 0 0 1 1.62 3.92l-.77 1.86a3 3 0 0 1-3.91 1.62l-1.43-.59a.33.33 0 0 0-.35.07.33.33 0 0 0-.08.36l.59 1.43a3 3 0 0 1-1.63 3.92l-1.84.76a3 3 0 0 1-3.92-1.62l-.59-1.43A.34.34 0 0 0 16 27a.34.34 0 0 0-.32.19l-.58 1.43a3 3 0 0 1-2.78 1.85ZM8 21.67a2.35 2.35 0 0 1 2.16 3.23l-.6 1.42a1 1 0 0 0 .55 1.31l1.89.77a1 1 0 0 0 1.31-.55l.58-1.41A2.31 2.31 0 0 1 16 25a2.31 2.31 0 0 1 2.15 1.43l.59 1.42a1 1 0 0 0 1.31.54l1.85-.76a1.05 1.05 0 0 0 .54-.54 1 1 0 0 0 0-.77l-.59-1.42a2.34 2.34 0 0 1 3-3l1.42.6a1 1 0 0 0 1.31-.55l.77-1.85a1 1 0 0 0-.55-1.31l-1.41-.58a2.34 2.34 0 0 1 0-4.31l1.42-.59a1 1 0 0 0 .58-1.31l-.76-1.85a1.05 1.05 0 0 0-.54-.54 1 1 0 0 0-.77 0l-1.42.59a2.34 2.34 0 0 1-3-3.05l.6-1.42a1 1 0 0 0-.55-1.31l-1.9-.82a1 1 0 0 0-1.31.55l-.58 1.41A2.31 2.31 0 0 1 16 7a2.31 2.31 0 0 1-2.15-1.43l-.59-1.42A1 1 0 0 0 12 3.61l-1.85.76a1.05 1.05 0 0 0-.54.54 1 1 0 0 0 0 .77l.59 1.42a2.34 2.34 0 0 1-3.1 3.05l-1.42-.6a1 1 0 0 0-1.31.55L3.6 12a1 1 0 0 0 .55 1.31l1.41.58a2.34 2.34 0 0 1 0 4.31l-1.42.59a1 1 0 0 0-.54 1.31l.76 1.85a1.05 1.05 0 0 0 .54.54 1 1 0 0 0 .77 0l1.42-.59a2.32 2.32 0 0 1 .91-.23Zm8-.67a5 5 0 0 1-4.63-6.91A5 5 0 1 1 16 21Zm0-8a3.06 3.06 0 0 0-1.15.23 3 3 0 0 0-1.62 3.92 3 3 0 0 0 3.92 1.62 3 3 0 0 0 0-5.54A2.88 2.88 0 0 0 16 13Z"></path>
</svg>
